<svg xmlns="http://www.w3.org/2000/svg" xmlns:xlink="http://www.w3.org/1999/xlink" width="555.837" height="383.613" viewBox="0 0 555.837 383.613">
  <defs>
    <clipPath id="clip-path">
      <path id="Path_5524" data-name="Path 5524" d="M184.794,512.157S121,459.557,187.83,408.88s-4.776-79.912,39.3-126.433,91.681,16.738,121.365-26.9c38.15-56.082,136.357-92.661,182.436-21.032,38.15,59.305,122.178,9.946,122.178,120.661,0,78.7,99.875,58.352,42,156.982Z" transform="translate(-157.319 -194.817)" fill="#e2e9fb"/>
    </clipPath>
    <linearGradient id="linear-gradient" x1="1.45" y1="0.861" x2="-0.38" y2="0.256" gradientUnits="objectBoundingBox">
      <stop offset="0" stop-color="#66e9ad"/>
      <stop offset="0.234" stop-color="#64e8aa"/>
      <stop offset="0.406" stop-color="#5fe5a0"/>
      <stop offset="0.558" stop-color="#57e090"/>
      <stop offset="0.698" stop-color="#4cda7a"/>
      <stop offset="0.83" stop-color="#3dd25d"/>
      <stop offset="0.843" stop-color="#3cd15a"/>
    </linearGradient>
    <linearGradient id="linear-gradient-2" x1="1.106" y1="0.545" x2="0.112" y2="0.483" gradientUnits="objectBoundingBox">
      <stop offset="0" stop-color="#94e8ff"/>
      <stop offset="1" stop-color="#0ea2e5"/>
    </linearGradient>
  </defs>
  <g id="illustration-hero-our-partners" transform="translate(-157.319 -207.142)">
    <g id="low_latency" data-name="low latency" transform="translate(157.319 207.142)">
      <g id="Group_2778" data-name="Group 2778">
        <g id="Group_2777" data-name="Group 2777">
          <path id="Path_5503" data-name="Path 5503" d="M184.794,512.157S121,459.557,187.83,408.88s-4.776-79.912,39.3-126.433,91.681,16.738,121.365-26.9c38.15-56.082,136.357-92.661,182.436-21.032,38.15,59.305,122.178,9.946,122.178,120.661,0,78.7,99.875,58.352,42,156.982Z" transform="translate(-157.319 -194.817)" fill="#e2e9fb"/>
          <g id="Group_2776" data-name="Group 2776" clip-path="url(#clip-path)">
            <g id="Group_2775" data-name="Group 2775" transform="translate(-3.808 -15.182)">
              <g id="Group_2754" data-name="Group 2754" transform="translate(33.063 155.88)">
                <g id="Group_2729" data-name="Group 2729" transform="translate(185.207)">
                  <rect id="Rectangle_608" data-name="Rectangle 608" width="0.718" height="94.642" fill="#fff"/>
                </g>
                <g id="Group_2730" data-name="Group 2730" transform="translate(173.632)">
                  <rect id="Rectangle_609" data-name="Rectangle 609" width="0.718" height="94.642" fill="#fff"/>
                </g>
                <g id="Group_2731" data-name="Group 2731" transform="translate(162.056)">
                  <rect id="Rectangle_610" data-name="Rectangle 610" width="0.718" height="94.642" fill="#fff"/>
                </g>
                <g id="Group_2732" data-name="Group 2732" transform="translate(150.481)">
                  <rect id="Rectangle_611" data-name="Rectangle 611" width="0.718" height="94.642" fill="#fff"/>
                </g>
                <g id="Group_2733" data-name="Group 2733" transform="translate(138.905)">
                  <rect id="Rectangle_612" data-name="Rectangle 612" width="0.718" height="94.642" fill="#fff"/>
                </g>
                <g id="Group_2734" data-name="Group 2734" transform="translate(127.33)">
                  <rect id="Rectangle_613" data-name="Rectangle 613" width="0.718" height="94.642" fill="#fff"/>
                </g>
                <g id="Group_2735" data-name="Group 2735" transform="translate(115.754)">
                  <rect id="Rectangle_614" data-name="Rectangle 614" width="0.718" height="94.642" fill="#fff"/>
                </g>
                <g id="Group_2736" data-name="Group 2736" transform="translate(104.179)">
                  <rect id="Rectangle_615" data-name="Rectangle 615" width="0.718" height="94.642" fill="#fff"/>
                </g>
                <g id="Group_2737" data-name="Group 2737" transform="translate(92.603)">
                  <rect id="Rectangle_616" data-name="Rectangle 616" width="0.718" height="94.642" fill="#fff"/>
                </g>
                <g id="Group_2738" data-name="Group 2738" transform="translate(81.028)">
                  <rect id="Rectangle_617" data-name="Rectangle 617" width="0.718" height="94.642" fill="#fff"/>
                </g>
                <g id="Group_2739" data-name="Group 2739" transform="translate(69.453)">
                  <rect id="Rectangle_618" data-name="Rectangle 618" width="0.718" height="94.642" fill="#fff"/>
                </g>
                <g id="Group_2740" data-name="Group 2740" transform="translate(57.877)">
                  <rect id="Rectangle_619" data-name="Rectangle 619" width="0.718" height="94.642" fill="#fff"/>
                </g>
                <g id="Group_2741" data-name="Group 2741" transform="translate(46.302)">
                  <rect id="Rectangle_620" data-name="Rectangle 620" width="0.718" height="94.642" fill="#fff"/>
                </g>
                <g id="Group_2742" data-name="Group 2742" transform="translate(34.726)">
                  <rect id="Rectangle_621" data-name="Rectangle 621" width="0.718" height="94.642" fill="#fff"/>
                </g>
                <g id="Group_2743" data-name="Group 2743" transform="translate(23.151)">
                  <rect id="Rectangle_622" data-name="Rectangle 622" width="0.718" height="94.642" fill="#fff"/>
                </g>
                <g id="Group_2744" data-name="Group 2744" transform="translate(11.575)">
                  <rect id="Rectangle_623" data-name="Rectangle 623" width="0.718" height="94.642" fill="#fff"/>
                </g>
                <g id="Group_2745" data-name="Group 2745">
                  <rect id="Rectangle_624" data-name="Rectangle 624" width="0.718" height="94.642" fill="#fff"/>
                </g>
                <g id="Group_2753" data-name="Group 2753" transform="translate(0.359 12.643)">
                  <g id="Group_2746" data-name="Group 2746" transform="translate(0 69.453)">
                    <rect id="Rectangle_625" data-name="Rectangle 625" width="185.207" height="0.718" fill="#fff"/>
                  </g>
                  <g id="Group_2747" data-name="Group 2747" transform="translate(0 57.877)">
                    <rect id="Rectangle_626" data-name="Rectangle 626" width="185.207" height="0.718" fill="#fff"/>
                  </g>
                  <g id="Group_2748" data-name="Group 2748" transform="translate(0 46.302)">
                    <rect id="Rectangle_627" data-name="Rectangle 627" width="185.207" height="0.718" fill="#fff"/>
                  </g>
                  <g id="Group_2749" data-name="Group 2749" transform="translate(0 34.726)">
                    <rect id="Rectangle_628" data-name="Rectangle 628" width="185.207" height="0.718" fill="#fff"/>
                  </g>
                  <g id="Group_2750" data-name="Group 2750" transform="translate(0 23.151)">
                    <rect id="Rectangle_629" data-name="Rectangle 629" width="185.207" height="0.718" fill="#fff"/>
                  </g>
                  <g id="Group_2751" data-name="Group 2751" transform="translate(0 11.575)">
                    <rect id="Rectangle_630" data-name="Rectangle 630" width="185.207" height="0.718" fill="#fff"/>
                  </g>
                  <g id="Group_2752" data-name="Group 2752">
                    <rect id="Rectangle_631" data-name="Rectangle 631" width="185.207" height="0.718" fill="#fff"/>
                  </g>
                </g>
              </g>
              <g id="Group_2755" data-name="Group 2755" transform="translate(301.798)">
                <rect id="Rectangle_632" data-name="Rectangle 632" width="7.145" height="332.523" fill="#d3ddf8"/>
                <rect id="Rectangle_633" data-name="Rectangle 633" width="7.144" height="332.523" transform="translate(68.728)" fill="#d3ddf8"/>
                <rect id="Rectangle_634" data-name="Rectangle 634" width="7.144" height="332.523" transform="translate(137.455)" fill="#d3ddf8"/>
                <rect id="Rectangle_635" data-name="Rectangle 635" width="7.144" height="332.523" transform="translate(206.183)" fill="#d3ddf8"/>
                <rect id="Rectangle_636" data-name="Rectangle 636" width="6.722" height="208.362" transform="translate(209.755 162.9) rotate(90)" fill="#d3ddf8"/>
                <rect id="Rectangle_637" data-name="Rectangle 637" width="52.504" height="208.362" transform="translate(209.755 23.088) rotate(90)" fill="#d3ddf8"/>
                <rect id="Rectangle_638" data-name="Rectangle 638" width="18.306" height="208.362" transform="translate(209.755 314.193) rotate(90)" fill="#d3ddf8"/>
              </g>
              <rect id="Rectangle_639" data-name="Rectangle 639" width="89.105" height="219.461" transform="translate(220.032 243.417) rotate(90)" fill="#d3ddf8"/>
              <rect id="Rectangle_640" data-name="Rectangle 640" width="90.805" height="2.999" transform="translate(150.196 241.718) rotate(90)" fill="#b3c0ec"/>
              <rect id="Rectangle_641" data-name="Rectangle 641" width="90.805" height="2.999" transform="translate(72.224 241.718) rotate(90)" fill="#b3c0ec"/>
              <rect id="Rectangle_642" data-name="Rectangle 642" width="5.908" height="224.498" transform="translate(224.498 237.509) rotate(90)" fill="#b3c0ec"/>
              <rect id="Rectangle_643" data-name="Rectangle 643" width="115.797" height="219.461" transform="translate(220.032 49.34) rotate(90)" fill="#d3ddf8"/>
              <rect id="Rectangle_644" data-name="Rectangle 644" width="90.805" height="2.999" transform="translate(150.196 74.332) rotate(90)" fill="#b3c0ec"/>
              <rect id="Rectangle_645" data-name="Rectangle 645" width="90.805" height="2.999" transform="translate(72.224 74.332) rotate(90)" fill="#b3c0ec"/>
              <g id="Group_2756" data-name="Group 2756" transform="translate(239.019 29.222)">
                <rect id="Rectangle_646" data-name="Rectangle 646" width="0.958" height="55.82" fill="#d3ddf8"/>
              </g>
              <path id="Path_5504" data-name="Path 5504" d="M278.3,258.8h-9.783V233.364a4.891,4.891,0,0,1,4.892-4.89h0a4.891,4.891,0,0,1,4.89,4.89Z" transform="translate(-33.907 -143.432)" fill="#d3ddf8"/>
              <g id="Group_2757" data-name="Group 2757" transform="translate(277.562 16.383)">
                <rect id="Rectangle_647" data-name="Rectangle 647" width="0.958" height="84.555" fill="#d3ddf8"/>
              </g>
              <path id="Path_5505" data-name="Path 5505" d="M296.863,266.457h-9.78V241.022a4.891,4.891,0,0,1,4.89-4.89h0a4.891,4.891,0,0,1,4.89,4.89Z" transform="translate(-13.932 -135.195)" fill="#d3ddf8"/>
              <g id="Group_2758" data-name="Group 2758" transform="translate(259.234 6.268)">
                <rect id="Rectangle_648" data-name="Rectangle 648" width="0.958" height="55.82" fill="#d3ddf8"/>
              </g>
              <path id="Path_5506" data-name="Path 5506" d="M288.034,247.74h-9.782V222.307a4.892,4.892,0,0,1,4.892-4.892h0a4.891,4.891,0,0,1,4.89,4.892Z" transform="translate(-23.431 -155.327)" fill="#d3ddf8"/>
              <g id="Group_2774" data-name="Group 2774" transform="translate(339.171 186.192)">
                <rect id="Rectangle_649" data-name="Rectangle 649" width="222.584" height="48.896" transform="translate(23.203 83.554)" fill="#6f8fe4"/>
                <path id="Path_5507" data-name="Path 5507" d="M318.89,313.879V377.7c0,2.348,2.248,4.249,5.019,4.249h48.435c2.773,0,5.023-1.9,5.023-4.249v-74.74H329.808A10.916,10.916,0,0,0,318.89,313.879Z" transform="translate(-318.89 -249.501)" fill="#6f8fe4"/>
                <g id="Group_2759" data-name="Group 2759" transform="translate(41.563)">
                  <path id="Path_5508" data-name="Path 5508" d="M441.078,277.229c-.26-.015-.523-.023-.789-.023H359.931l-10.7,93.13h80.36c6.36,0,11.518-4.361,11.518-9.743L451.34,290.17A11.249,11.249,0,0,0,441.078,277.229Z" transform="translate(-327.821 -277.206)" fill="#b3c0ec"/>
                  <path id="Path_5509" data-name="Path 5509" d="M432.351,277.229c-.262-.015-.525-.023-.789-.023H361.134c-6.36,0-11.518,4.361-11.518,9.745l-10.7,73.642c0,5.382,5.158,9.743,11.516,9.743h70.429c6.364,0,11.518-4.361,11.518-9.743l10.235-70.424A11.245,11.245,0,0,0,432.351,277.229Z" transform="translate(-338.914 -277.206)" fill="#d3ddf8"/>
                </g>
                <g id="Group_2762" data-name="Group 2762" transform="translate(23.2 75.981)">
                  <g id="Group_2760" data-name="Group 2760">
                    <path id="Path_5510" data-name="Path 5510" d="M436.424,316.413c-41.534-5.851-101.3,0-101.3,0-3.109.8-4.062,1.665-5.058,3.742V351.74a1.191,1.191,0,0,0,1.314,1.318h105.04c2.792,0,5.058-1.675,5.058-3.742V320.155C441.483,318.762,439.139,317.164,436.424,316.413Z" transform="translate(-330.067 -313.812)" fill="#fff"/>
                  </g>
                  <g id="Group_2761" data-name="Group 2761" transform="translate(0 6.665)">
                    <path id="Path_5511" data-name="Path 5511" d="M434.212,317.023H330.071v31.263a1.191,1.191,0,0,0,1.314,1.318h105.04c2.792,0,5.058-1.675,5.058-3.742V324.294A7.27,7.27,0,0,0,434.212,317.023Z" transform="translate(-330.067 -317.023)" fill="#d3ddf8"/>
                  </g>
                </g>
                <g id="Group_2765" data-name="Group 2765" transform="translate(8.035 132.501)">
                  <g id="Group_2763" data-name="Group 2763">
                    <path id="Path_5512" data-name="Path 5512" d="M322.761,354.872h4.884l8.5-13.83h-7.567Z" transform="translate(-322.761 -341.042)" fill="#6f8fe4"/>
                  </g>
                  <g id="Group_2764" data-name="Group 2764" transform="translate(45.954)">
                    <path id="Path_5513" data-name="Path 5513" d="M344.9,354.872h4.88l8.5-13.83h-7.565Z" transform="translate(-344.901 -341.042)" fill="#6f8fe4"/>
                  </g>
                </g>
                <g id="Group_2766" data-name="Group 2766" transform="translate(152.732)">
                  <path id="Path_5514" data-name="Path 5514" d="M493.872,277.223c-.224-.01-71.771-.017-71.771-.017a10.388,10.388,0,0,0-10.322,9.2l-8.315,72.35a10.391,10.391,0,0,0,10.322,11.576h68.706c6.131,0,11.146-4.054,11.5-9.17.027-.38.048-.762.1-1.14l10.156-69.88A11.237,11.237,0,0,0,493.872,277.223Z" transform="translate(-380.725 -277.206)" fill="#b3c0ec"/>
                  <path id="Path_5515" data-name="Path 5515" d="M485.91,277.229c-.259-.015-.523-.023-.789-.023H414.695c-6.36,0-11.518,4.361-11.518,9.745l-10.7,73.642c0,5.382,5.158,9.743,11.518,9.743h70.427c6.364,0,11.518-4.361,11.518-9.743l10.235-70.424A11.245,11.245,0,0,0,485.91,277.229Z" transform="translate(-392.473 -277.206)" fill="#d3ddf8"/>
                </g>
                <path id="Path_5516" data-name="Path 5516" d="M466.112,291.743c-5.662,2.651-6.837-.079-26.051.766-11.478.5-17.844-1.43-21.095-3.049a1.934,1.934,0,0,0-2.852,1.613c0,3.026-.125,7.989-.714,15.052-2.391,28.665-12.236,28.829-6.823,31.386s66.881,7.64,59.569,1.449c-7.29-6.173,1.15-29.2,3.184-38.25C473.015,293.211,470.99,289.46,466.112,291.743Z" transform="translate(-224.142 -264.26)" fill="#fff"/>
                <path id="Path_5517" data-name="Path 5517" d="M453.718,293.868c-19.961,1.822-40.014.467-47.922-.222a3.146,3.146,0,0,0-3.5,2.989c-.313,11.765-5.01,28.746-7.132,35.861a3.212,3.212,0,0,0,2.661,3.994,218.138,218.138,0,0,0,49.2,3,3.092,3.092,0,0,0,3-3.064c-.166-12.423,4.761-30.213,7.294-38.507A3.269,3.269,0,0,0,453.718,293.868Z" transform="translate(-236.977 -259.537)" fill="#e2e9fb"/>
                <g id="Group_2770" data-name="Group 2770" transform="translate(134.373 75.981)">
                  <g id="Group_2769" data-name="Group 2769">
                    <g id="Group_2767" data-name="Group 2767">
                      <path id="Path_5518" data-name="Path 5518" d="M489.982,316.413c-41.534-5.851-101.3,0-101.3,0-3.109.8-4.06,1.665-5.058,3.742v29.161s2.578,3.742,4.027,3.742H489.982c2.792,0,5.06-1.675,5.06-3.742V320.155C495.042,318.762,492.7,317.164,489.982,316.413Z" transform="translate(-383.628 -313.812)" fill="#fff"/>
                    </g>
                    <g id="Group_2768" data-name="Group 2768" transform="translate(0 6.665)">
                      <path id="Path_5519" data-name="Path 5519" d="M383.628,324.261v21.234a4.072,4.072,0,0,0,3.933,4.11h102.42c2.792,0,5.06-1.675,5.06-3.742V317.023H390.864A7.237,7.237,0,0,0,383.628,324.261Z" transform="translate(-383.628 -317.023)" fill="#d3ddf8"/>
                    </g>
                  </g>
                </g>
                <g id="Group_2771" data-name="Group 2771" transform="translate(222.347 132.501)">
                  <path id="Path_5520" data-name="Path 5520" d="M426.012,341.042l8.5,13.83H439.4l-5.817-13.83Z" transform="translate(-426.012 -341.042)" fill="#6f8fe4"/>
                </g>
                <g id="Group_2772" data-name="Group 2772" transform="translate(261.257 132.501)">
                  <path id="Path_5521" data-name="Path 5521" d="M444.758,341.042l8.5,13.83h4.883l-5.82-13.83Z" transform="translate(-444.758 -341.042)" fill="#6f8fe4"/>
                </g>
                <g id="Group_2773" data-name="Group 2773" transform="translate(0 53.462)">
                  <path id="Path_5522" data-name="Path 5522" d="M474.5,302.963H436.225a10.1,10.1,0,0,0-10.1,10.1V377.7c0,2.348,2.25,4.249,5.021,4.249h48.439c2.771,0,5.017-1.9,5.017-4.249V313.063A10.1,10.1,0,0,0,474.5,302.963Z" transform="translate(-203.544 -302.963)" fill="#6f8fe4"/>
                  <path id="Path_5523" data-name="Path 5523" d="M554.481,302.963h-2.815a10.2,10.2,0,0,0-10.2,10.193v54.261H342.094V313.879a10.916,10.916,0,0,0-10.918-10.916h-1.368a10.916,10.916,0,0,0-10.918,10.918V377.7c0,2.346,2.248,4.247,5.019,4.247H557.478a7.2,7.2,0,0,0,7.2-7.2v-61.6A10.2,10.2,0,0,0,554.481,302.963Z" transform="translate(-318.89 -302.963)" fill="#fff"/>
                </g>
              </g>
            </g>
          </g>
        </g>
      </g>
      <g id="Group_2790" data-name="Group 2790" transform="translate(255.062 96.686)">
        <g id="Group_2782" data-name="Group 2782" transform="translate(0 18.444)">
          <g id="Group_2781" data-name="Group 2781">
            <g id="Group_2779" data-name="Group 2779" transform="translate(0 4.627)">
              <path id="Path_5525" data-name="Path 5525" d="M280.23,256.368a2.042,2.042,0,1,1,2.345,1.685A2.044,2.044,0,0,1,280.23,256.368Z" transform="translate(-280.203 -250.919)" fill="#e5f8ef"/>
              <path id="Path_5526" data-name="Path 5526" d="M284.723,255.632a2.041,2.041,0,1,1,2.343,1.683A2.041,2.041,0,0,1,284.723,255.632Z" transform="translate(-275.371 -251.71)" fill="#e5f8ef"/>
              <path id="Path_5527" data-name="Path 5527" d="M291.62,256.569a2.041,2.041,0,1,1,1.685-2.345A2.042,2.042,0,0,1,291.62,256.569Z" transform="translate(-270.475 -252.513)" fill="#e5f8ef"/>
            </g>
            <g id="Group_2780" data-name="Group 2780" transform="translate(28.218)">
              <path id="Path_5528" data-name="Path 5528" d="M293.825,254.137a2.042,2.042,0,1,1,2.345,1.685A2.041,2.041,0,0,1,293.825,254.137Z" transform="translate(-293.798 -248.689)" fill="#e5f8ef"/>
              <path id="Path_5529" data-name="Path 5529" d="M298.317,253.4a2.042,2.042,0,1,1,2.345,1.685A2.044,2.044,0,0,1,298.317,253.4Z" transform="translate(-288.966 -249.481)" fill="#e5f8ef"/>
              <path id="Path_5530" data-name="Path 5530" d="M305.213,254.342A2.042,2.042,0,1,1,306.9,252,2.041,2.041,0,0,1,305.213,254.342Z" transform="translate(-284.07 -250.284)" fill="#e5f8ef"/>
            </g>
          </g>
        </g>
        <g id="Group_2789" data-name="Group 2789" transform="translate(56.459)">
          <g id="Group_2785" data-name="Group 2785" transform="translate(0 9.189)">
            <g id="Group_2783" data-name="Group 2783" transform="translate(0 4.627)">
              <path id="Path_5531" data-name="Path 5531" d="M307.431,251.909a2.042,2.042,0,1,1,2.348,1.685A2.044,2.044,0,0,1,307.431,251.909Z" transform="translate(-307.404 -246.46)" fill="#e5f8ef"/>
              <path id="Path_5532" data-name="Path 5532" d="M311.924,251.173a2.041,2.041,0,1,1,2.345,1.683A2.041,2.041,0,0,1,311.924,251.173Z" transform="translate(-302.572 -247.251)" fill="#e5f8ef"/>
              <path id="Path_5533" data-name="Path 5533" d="M318.821,252.11a2.041,2.041,0,1,1,1.685-2.345A2.041,2.041,0,0,1,318.821,252.11Z" transform="translate(-297.676 -248.054)" fill="#e5f8ef"/>
            </g>
            <g id="Group_2784" data-name="Group 2784" transform="translate(28.218)">
              <path id="Path_5534" data-name="Path 5534" d="M321.026,249.681a2.042,2.042,0,1,1,2.345,1.683A2.042,2.042,0,0,1,321.026,249.681Z" transform="translate(-320.999 -244.23)" fill="#e5f8ef"/>
              <path id="Path_5535" data-name="Path 5535" d="M325.518,248.944a2.042,2.042,0,1,1,2.345,1.685A2.044,2.044,0,0,1,325.518,248.944Z" transform="translate(-316.167 -245.022)" fill="#e5f8ef"/>
              <path id="Path_5536" data-name="Path 5536" d="M332.416,249.883a2.042,2.042,0,1,1,1.683-2.345A2.043,2.043,0,0,1,332.416,249.883Z" transform="translate(-311.271 -245.825)" fill="#e5f8ef"/>
            </g>
          </g>
          <g id="Group_2788" data-name="Group 2788" transform="translate(56.058)">
            <g id="Group_2786" data-name="Group 2786" transform="translate(0 4.627)">
              <path id="Path_5537" data-name="Path 5537" d="M334.439,247.482a2.041,2.041,0,1,1,2.345,1.685A2.041,2.041,0,0,1,334.439,247.482Z" transform="translate(-334.412 -242.033)" fill="#e5f8ef"/>
              <path id="Path_5538" data-name="Path 5538" d="M338.931,246.746a2.042,2.042,0,1,1,2.345,1.683A2.042,2.042,0,0,1,338.931,246.746Z" transform="translate(-329.58 -242.824)" fill="#e5f8ef"/>
              <path id="Path_5539" data-name="Path 5539" d="M345.828,247.683a2.041,2.041,0,1,1,1.685-2.345A2.042,2.042,0,0,1,345.828,247.683Z" transform="translate(-324.685 -243.627)" fill="#e5f8ef"/>
            </g>
            <g id="Group_2787" data-name="Group 2787" transform="translate(28.218)">
              <path id="Path_5540" data-name="Path 5540" d="M348.034,245.252a2.041,2.041,0,1,1,2.343,1.685A2.039,2.039,0,0,1,348.034,245.252Z" transform="translate(-348.007 -239.803)" fill="#e5f8ef"/>
              <path id="Path_5541" data-name="Path 5541" d="M352.526,244.517a2.041,2.041,0,1,1,2.346,1.685A2.041,2.041,0,0,1,352.526,244.517Z" transform="translate(-343.175 -240.595)" fill="#e5f8ef"/>
              <path id="Path_5542" data-name="Path 5542" d="M359.423,245.456a2.042,2.042,0,1,1,1.685-2.345A2.043,2.043,0,0,1,359.423,245.456Z" transform="translate(-338.28 -241.398)" fill="#e5f8ef"/>
            </g>
          </g>
        </g>
      </g>
      <path id="Path_5594" data-name="Path 5594" d="M287.876,262.112s-5.243-1.316-6.746-1.634c-1.756-.369-3.363-1.69-3.875-1.069-.951,1.156,3.064,3.19,4.647,6.76.778,1.754,2.343,2.707,5.478,1.42C288.961,266.94,290.219,263.665,287.876,262.112Z" transform="translate(-28.467 -125.514)" fill="#e2915a"/>
    </g>
    <g id="Group_2799" data-name="Group 2799" transform="translate(338.773 355.646)">
      <g id="Isolation_Mode" data-name="Isolation Mode" transform="translate(0 228.323)">
        <ellipse id="Ellipse_190" data-name="Ellipse 190" cx="47.881" cy="3.393" rx="47.881" ry="3.393" transform="translate(111.242 0)" opacity="0.15"/>
        <ellipse id="Ellipse_191" data-name="Ellipse 191" cx="47.881" cy="3.393" rx="47.881" ry="3.393" transform="translate(0 0)" opacity="0.15"/>
      </g>
      <g id="Group_2793" data-name="Group 2793" transform="translate(76.428 0)">
        <g id="man">
          <path id="Path_5543" data-name="Path 5543" d="M331.853,214.014l-9.313,17.67-4.776-1.736,1.55,4.714-9.338,28.13S304.812,227.051,331.853,214.014Z" transform="translate(-262.387 -179.123)" fill="#233862"/>
          <path id="Path_5544" data-name="Path 5544" d="M317.411,225.885s-10.3,37.967-11.291,74.2c0,0,8.543,2.977,21.962.62C341.57,298.335,317.411,225.885,317.411,225.885Z" transform="translate(-263.482 -175.371)" fill="#233862"/>
          <path id="Path_5545" data-name="Path 5545" d="M278.337,267.57c2.764-.051,6.656.29,7.941-1.116a3.886,3.886,0,0,1,3.177-1.361l-.349-1.823-.416-2.176s-.158-.2-.724-.192a10.728,10.728,0,0,1-2.96-.255c-2.327-.832-11.588,4.717-11.276,6.257C273.849,267.481,277.161,267.592,278.337,267.57Z" transform="translate(-273.723 -164.408)" fill="#e2915a"/>
          <path id="Path_5546" data-name="Path 5546" d="M325.862,225.319s-15.645,32.315-20.487,35.783-22.1,10.97-22.1,10.97a4.405,4.405,0,0,0-.033,2.648,3.284,3.284,0,0,0,1.3,2.1s24.13-2.155,29.74-5.645,17.98-17.411,17.98-17.411Z" transform="translate(-270.77 -175.55)" fill="#233862"/>
          <g id="Group_2791" data-name="Group 2791" transform="translate(47.146 105.434)">
            <path id="Path_5547" data-name="Path 5547" d="M350.4,367.5h9.259a5.614,5.614,0,0,0,2.533-4.243c.451-2.982,3.794-4.609,4.518-7.049s-2.982-5.874-2.982-5.874l-.62-.8-.645-.828-6.146,1.446s-.153,1.464-.245,3.328a42.616,42.616,0,0,0-.026,4.263c.182,3.252-.909,6.757-3.8,7.39C350.106,365.6,350.2,366.865,350.4,367.5Z" transform="translate(-296.661 -241.979)" fill="#233862"/>
            <path id="Path_5548" data-name="Path 5548" d="M309.545,365.583H330.72c1.019-1.242.644-5.829.49-7.327-.032-.3-.054-.478-.054-.478s-7.231-5.783-8.224-1.354c-.03.138-.067.275-.107.408-1.252,4.143-6.864,6.025-10.105,6.549A3.672,3.672,0,0,0,309.545,365.583Z" transform="translate(-309.545 -240.066)" fill="#233862"/>
            <path id="Path_5549" data-name="Path 5549" d="M312.611,273.63s1.1,13.7,2.388,30.165c1.754,22.369,3.864,49.846,4.072,55.051.361,9.039,1.808,23.5,1.808,23.5s3.432,3.435,10.3,1.987a236.567,236.567,0,0,0,7.87-42.477c.026-.358.054-.719.082-1.079,1.625-22.231,4.155-69.042,4.155-69.042Z" transform="translate(-308.576 -266.311)" fill="#2b478b"/>
            <path id="Path_5550" data-name="Path 5550" d="M312.611,273.63s1.1,13.7,2.388,30.165l24.053,38.058c.026-.358.054-.719.082-1.079,1.625-22.231,4.155-69.042,4.155-69.042Z" transform="translate(-308.576 -266.311)" fill="#233862"/>
            <path id="Path_5551" data-name="Path 5551" d="M316.421,276.559s19.791,49.613,32.8,72.928S366.3,379.307,366.3,379.307s7.456-2.981,8.134-5.014c0,0-4.976-45.011-13.69-55.984-4.925-6.2-10.709-24.8-10.98-31.312S348,267.613,348,267.613Z" transform="translate(-307.371 -267.613)" fill="#2b478b"/>
          </g>
          <path id="Path_5552" data-name="Path 5552" d="M320.164,224.412c7.734,2.44,21.115-4.146,21.115-4.146s-7.131-5.351-6.757-16.478l-5.979,4.818-4.062,3.273a48.543,48.543,0,0,0,.459,5.312c.082.616.176,1.282.29,1.993a1.436,1.436,0,0,1-.65,1.444A18.254,18.254,0,0,0,320.164,224.412Z" transform="translate(-259.042 -182.356)" fill="#ffb27d"/>
          <path id="Path_5553" data-name="Path 5553" d="M311.967,293.017a1.254,1.254,0,0,0,.813.311c2.9-.039,11.373,1.573,18.539.837a53.379,53.379,0,0,0,17.129-4.943c.762-.341,2.518-1.278,2.478-2.131-.026-.933-.118-2.286-.234-3.99a213.584,213.584,0,0,1-.425-27.882c.125-2.19.189-4.362.2-6.5.059-15.94-3.1-29.959-9.452-34.7a52.646,52.646,0,0,1-7.493,3.464c-3,.96-4.551.767-6.108-.266a19.008,19.008,0,0,0-4.329,2.919c-3,3.272-5.345,7.615-6.893,13.848a118.627,118.627,0,0,0-2.978,22.956C313.018,261.427,311.773,292.862,311.967,293.017Z" transform="translate(-261.64 -179.123)" fill="#fff"/>
          <path id="Path_5554" data-name="Path 5554" d="M347.865,240.35l-8.513-26.336s-20.438,7.707-21.384,36.567c-.372,6.577-1.949,33.527.9,55.862,0,0,15.924,6.2,35.446-6.04Z" transform="translate(-259.98 -179.123)" fill="#2b478b"/>
          <path id="Path_5555" data-name="Path 5555" d="M323.444,210.75a48.52,48.52,0,0,0,.459,5.312c4.5-.773,9.606-8.047,9.606-8.047a14.343,14.343,0,0,0-6-.538Z" transform="translate(-258.005 -181.226)" fill="#ed975d"/>
          <path id="Path_5556" data-name="Path 5556" d="M321.551,215.314s13.93,2.314,15.238-6.383,3.985-14.255-4.853-16.1-11.07,1.213-12.212,4.01S317.962,214.488,321.551,215.314Z" transform="translate(-259.463 -185.997)" fill="#ffb27d"/>
          <g id="Group_2792" data-name="Group 2792" transform="translate(84.366 112.273)">
            <rect id="Rectangle_650" data-name="Rectangle 650" width="42.324" height="26.045" rx="5.165" transform="matrix(0.99, -0.141, 0.141, 0.99, 0, 8.776)" fill="#048c4e"/>
            <path id="Path_5557" data-name="Path 5557" d="M341.417,287.774l1.778,12.466a6.836,6.836,0,0,0,4.017,5.282,6.717,6.717,0,0,0,2.215.559h.005a6.672,6.672,0,0,0,1.481-.047l28.389-4.047a6.841,6.841,0,0,0,5.792-7.716L383.319,281.8a6.843,6.843,0,0,0-7.718-5.791l-9.775,1.392-.379-2.66a2.254,2.254,0,0,0-2.545-1.911l-1.073.153-5.946.848-1.477.212a2.251,2.251,0,0,0-1.912,2.545l.379,2.66-5.663.806a6.661,6.661,0,0,0-.657.128h-.007a6.847,6.847,0,0,0-4.712,4.116h0A6.776,6.776,0,0,0,341.417,287.774ZM364.428,277.6,354.27,279.05l-.379-2.66a.84.84,0,0,1,.713-.949l2.551-.363,4.68-.669,1.263-.179a.855.855,0,0,1,.253,0,.845.845,0,0,1,.7.711Z" transform="translate(-336.711 -272.81)" fill="url(#linear-gradient)"/>
          </g>
          <path id="Path_5558" data-name="Path 5558" d="M350.907,267.845a9.867,9.867,0,0,1,1.553,2.784c.4,5.388-2.061,6.133,4.314,9.127,0,0,2.72,1.037,2.767-1.075s-1.887-2.147-1.535-5.105c.408-3.411.367-3.443-1.871-5.225l-1.483-2.449Z" transform="translate(-249.324 -162.721)" fill="#ffb27d"/>
          <path id="Path_5559" data-name="Path 5559" d="M362.014,285.772a21.842,21.842,0,0,1-5,.279s-7.129-22.023-8.047-24.035-21.175-25.822-21.175-25.822L336,214.014s4.82,2.82,9.914,11.612c6.295,10.859,13.214,28.348,14.443,31.189,3.677,8.5,4.953,27.553,4.953,27.553A9.171,9.171,0,0,1,362.014,285.772Z" transform="translate(-256.632 -179.123)" fill="#2b478b"/>
          <path id="Path_5560" data-name="Path 5560" d="M337.669,209.6s-1.429-.24-1.2-2.208.226-4.542-1.374-4.063-1.681,1.761-2.339,1.013-.669-3.9-5.432-4.122-6.7,1.438-8.914.465-2.332-4.326-2.332-4.326a3.811,3.811,0,0,0,1.582,1.578s-3.7-5.054.583-8.521,8.64-1.2,11.116-1.046c5.455.33,8.98.657,10.762,4.242S341.17,206.151,337.669,209.6Z" transform="translate(-260.333 -187.504)" fill="#2b478b"/>
          <path id="Path_5561" data-name="Path 5561" d="M353.236,269.178s-1.438,1.5-1.528,2.123c-.292,2-.961,2.867-.625,3.085.7.453,1.618-1.031,2.059-2.36A6.069,6.069,0,0,0,353.236,269.178Z" transform="translate(-249.297 -161.685)" fill="#ffb27d"/>
          <path id="Path_5562" data-name="Path 5562" d="M339.38,214.014l-9.313,17.67-4.777-1.736,1.552,4.714-9.338,28.13S312.339,227.051,339.38,214.014Z" transform="translate(-260.008 -179.123)" fill="#233862"/>
        </g>
        <path id="Path_5563" data-name="Path 5563" d="M320.164,206.071a2.309,2.309,0,0,0,1.9,1.473,3.441,3.441,0,0,0,2.4-1.279S321.521,205.583,320.164,206.071Z" transform="translate(-259.042 -181.69)" fill="#fff"/>
      </g>
      <g id="Group_2797" data-name="Group 2797" transform="translate(9.66 0.023)">
        <g id="Group_2794" data-name="Group 2794" transform="translate(40.218 123.222)">
          <rect id="Rectangle_651" data-name="Rectangle 651" width="42.772" height="26.321" rx="5.22" transform="matrix(0.974, -0.226, 0.226, 0.974, 2.357, 10.369)" fill="#57a0df"/>
          <path id="Path_5564" data-name="Path 5564" d="M293.735,286.288h0a6.917,6.917,0,0,0-5.942-2.16h-.007c-.221.03-.442.068-.665.12l-5.632,1.307-.613-2.645a2.276,2.276,0,0,0-2.73-1.7l-1.469.341-5.913,1.369-1.066.247a2.278,2.278,0,0,0-1.7,2.73l.613,2.645-9.721,2.252a6.918,6.918,0,0,0-5.162,8.274l2.874,12.4a6.914,6.914,0,0,0,8.273,5.161l28.232-6.54a6.718,6.718,0,0,0,1.412-.5h.005a6.8,6.8,0,0,0,1.885-1.336,6.909,6.909,0,0,0,1.858-6.443l-2.872-12.4A6.836,6.836,0,0,0,293.735,286.288Zm-24.35-.717a.851.851,0,0,1,.4-.924.89.89,0,0,1,.237-.1l1.256-.291,4.655-1.077,2.536-.588a.849.849,0,0,1,1.019.634l.613,2.645-10.1,2.34Z" transform="translate(-253.55 -281.146)" opacity="0.7" fill="url(#linear-gradient-2)"/>
        </g>
        <path id="Path_5565" data-name="Path 5565" d="M271.744,273.073s-.854,3.03-.561,3.994c1.986,6.54,5.422,10.821-3.813,9.716,0,0,.382-.378-1.386-3.706-2.04-3.839-2.006-3.894-.176-7.02l.63-3.568Z" transform="translate(-209.887 -160.661)" fill="#ffb27d"/>
        <path id="Path_5566" data-name="Path 5566" d="M281.278,269.2c-2.789-.17-6.187-.9-7.426-2.373a6.861,6.861,0,0,0-2.806-2.12l.428-1.826.513-2.181s.167-.193.738-.162c0,0,2.186.495,3-.133s2.3-.245,3.209.362c1.163.773,2.732.648,2.694,1.025,0,0-2.3,1.133-2.09,1.324,2.111,1.874,7.669,2.619,7.308,4.083C286.7,267.781,282.465,269.277,281.278,269.2Z" transform="translate(-207.801 -164.581)" fill="#ffb27d"/>
        <path id="Path_5567" data-name="Path 5567" d="M253.116,214.991l-.009,1.516s.413,4.739-5.424,5.432-10.622.6-10.464-3.055a77.459,77.459,0,0,0,1.507-9.571,16.669,16.669,0,0,0-.208-2.839l11.309-.226,3.331.545Z" transform="translate(-218.495 -181.601)" fill="#ffb27d"/>
        <path id="Path_5568" data-name="Path 5568" d="M252.845,206.793l-.042,8.2a9.557,9.557,0,0,1-4.077.9c-5.2,0-8.557-3.811-10.313-6.578a16.666,16.666,0,0,0-.208-2.839l11.309-.226Z" transform="translate(-218.183 -181.601)" fill="#e2915a"/>
        <path id="Path_5569" data-name="Path 5569" d="M237.99,209.309c1.313,7.062,10.425,6.831,14.364,6.387,1.108-.124,1.8-.265,1.8-.265,1.25-.334,1.948-2.3,2.272-4.88.642-5.1-.17-12.593-1.032-14.508-1.3-2.884-3.74-6-12.918-3.751S236.306,200.261,237.99,209.309Z" transform="translate(-218.835 -186.256)" fill="#ffb27d"/>
        <path id="Path_5570" data-name="Path 5570" d="M231.881,365.808h12.913a31.141,31.141,0,0,0-1.029-4.635,13.1,13.1,0,0,0-.732-1.86c-1.256-2.507-9.233-.913-9.233-.913s-.741.636-1.319,3.06A25.614,25.614,0,0,0,231.881,365.808Z" transform="translate(-220.182 -133.661)" fill="#233862"/>
        <path id="Path_5571" data-name="Path 5571" d="M261.531,362.995c.034,1.757.255,3.419.894,4.076h25.541c-.324-.924-1.244-2.314-3.865-2.74-2.98-.482-7.624-1.916-10.336-4.783a7.694,7.694,0,0,1-2-3.625c-1.2-5.35-9.935,1.64-9.935,1.64A43.233,43.233,0,0,0,261.531,362.995Z" transform="translate(-210.81 -134.923)" fill="#233862"/>
        <path id="Path_5572" data-name="Path 5572" d="M251.706,332.518a40.528,40.528,0,0,1,.641,4.718c.812,15.838,13.332,52.051,15.571,52.9,3.465,1.307,8.922-1.473,11.777-2.382a2.447,2.447,0,0,0,1.718-2.781c-6.2-28.5-8.478-69.547-9.307-93.847a110.212,110.212,0,0,0-2.521-20.695s-30.535-8.147-30.717,2.16C238.707,281.706,248.983,317.473,251.706,332.518Z" transform="translate(-217.974 -162.279)" fill="#2b478b"/>
        <path id="Path_5573" data-name="Path 5573" d="M251.706,332.518l20.4-41.4a110.212,110.212,0,0,0-2.521-20.695s-30.535-8.147-30.717,2.16C238.707,281.706,248.983,317.473,251.706,332.518Z" transform="translate(-217.974 -162.279)" fill="#233862"/>
        <path id="Path_5574" data-name="Path 5574" d="M262.012,272.255l-16.142,117s-7.09,1.71-12.6.342c0,0-4.726-62.224-4.331-77.267s-3.393-40.254.863-43.033S262.012,272.255,262.012,272.255Z" transform="translate(-221.485 -161.912)" fill="#2b478b"/>
        <path id="Path_5575" data-name="Path 5575" d="M256.669,198.413c-2.522.795-7.853-.016-10.083,1.787s-.105,4.778-2.653,5.837l-.009.005a1.261,1.261,0,0,1-1.465-.367c-.705-.881-1.681-1.758-2.573-1.4-.733.3-.77,1.245-.446,2.165a2.562,2.562,0,0,1-.274,2.312,1.258,1.258,0,0,0-.278.93c.212,1.166.79,2.682,1,3.457l.058.813s-4.268-4.62-6.065-8.507c-1.233-2.668-1.21-12.637,4.825-15.551a.209.209,0,0,1-.058-.066c-.13-.233-.494-.18-.494-.18a2.725,2.725,0,0,1,1.324-.086c-.018-.012.014-.05.087-.105a2.135,2.135,0,0,1,.816-1.208,2.381,2.381,0,0,0-.387.953c1.586-.836,6.464-2.686,10.33-1a32.16,32.16,0,0,0,6.642,2.057,2.769,2.769,0,0,1,2.243,2.822C259.142,195,258.475,197.755,256.669,198.413Z" transform="translate(-219.752 -187.521)" fill="#233862"/>
        <path id="Path_5576" data-name="Path 5576" d="M236.172,217.393l3.717,79.745s31.02.507,30.134-6.514-11.182-70.789-11.182-70.789Z" transform="translate(-218.825 -178.078)" fill="#e9f3fe"/>
        <path id="Path_5577" data-name="Path 5577" d="M250.425,268.059s-1.574,21.3-4.6,34.671c0,0-18.1.961-22.4-6.029,0,0,3.4-28.772,3.4-34.607,0-2.052-.158-4.841-.409-7.957-.376-4.724-.961-10.192-1.515-14.958-.77-6.636-1.477-11.91-1.477-11.91l14.923-12.128Z" transform="translate(-222.854 -178.79)" fill="#22407a"/>
        <path id="Path_5578" data-name="Path 5578" d="M277.756,293.22a13.926,13.926,0,0,1-8.7,1.406c-1.936,4.746-6.5,6.359-6.5,5.93,0-.053-1.025-8.965-2.236-19.471q-.178-1.575-.364-3.186c-.009-.092-.022-.183-.032-.275-.2-1.76-.408-3.539-.613-5.311-1.457-12.652-2.856-24.779-2.856-24.779-3.174-19.431-5.862-32.273-5.862-32.273,6.773.7,11.341,3.117,13.165,6.275,5.4,9.368,9.318,32.8,11.611,50.339.005.045.01.089.017.134.395,3.027.742,5.878,1.037,8.447.02.162.038.32.055.476C277.324,288.284,277.756,293.22,277.756,293.22Z" transform="translate(-214.266 -178.752)" fill="#22407a"/>
        <path id="Path_5579" data-name="Path 5579" d="M249.141,215.263" transform="translate(-214.725 -178.752)" fill="#2b478b"/>
        <path id="Path_5580" data-name="Path 5580" d="M247.372,206.122s.295.911,2.593.578c0,0,1.931-.279,1.787-1.294A6.258,6.258,0,0,0,247.372,206.122Z" transform="translate(-215.285 -181.908)" fill="#fff"/>
        <g id="Group_2796" data-name="Group 2796" transform="translate(16.467 33.533)">
          <path id="Path_5581" data-name="Path 5581" d="M235.5,215.5c-.038-.761,3.567-1.812,3.567-1.812s4.126,5.72,10.924,5.819c0,0-1.937,3.771-4.221,4.747C245.774,224.257,235.728,220.023,235.5,215.5Z" transform="translate(-235.504 -212.782)" fill="#29abe5"/>
          <path id="Path_5582" data-name="Path 5582" d="M246.514,219.088s3.6-2.135,3.613-4.45c0,0,2.326-.291,3.342.837,0,0,.854,3.967-.279,6.27C253.189,221.745,248,220.955,246.514,219.088Z" transform="translate(-232.023 -212.493)" fill="#29abe5"/>
          <path id="Path_5583" data-name="Path 5583" d="M244.705,218.031l4.883-1.17a.74.74,0,0,1,.621.85c-.018.795-1.375,3.119-1.977,3.3S243.551,219.641,244.705,218.031Z" transform="translate(-232.66 -211.779)" fill="#29abe5"/>
          <path id="Path_5584" data-name="Path 5584" d="M235.936,215.328c-.038-.761,2.4-2.328,2.4-2.328s4.722,5.519,11.52,5.617c0,0-1.937,3.771-4.221,4.747C245.637,223.364,236.161,219.848,235.936,215.328Z" transform="translate(-235.367 -213)" fill="#29abe5"/>
          <path id="Path_5585" data-name="Path 5585" d="M246.514,218.288s3.642-1.929,3.654-4.245a11.633,11.633,0,0,1,3.215,2.1,6.682,6.682,0,0,1-.194,4.808S248,220.155,246.514,218.288Z" transform="translate(-232.023 -212.67)" fill="#29abe5"/>
          <g id="Group_2795" data-name="Group 2795" transform="translate(13.345 7.78)">
            <path id="Path_5586" data-name="Path 5586" d="M255.715,283.617a10.354,10.354,0,0,1-2.456,5.995l-2.187,2.47a1.116,1.116,0,0,1-1.853-.161l-2.641-4.142a6.362,6.362,0,0,1-.908-3.942c.282-3.161.807-9.252,1.237-15.129.35-4.763.64-9.388.684-12.2.146-8.98-1.031-37.6-1.031-37.6l1.756.092a132.208,132.208,0,0,1,6.391,26.159c.528,3.717.924,7.674,1.1,11.775C255.807,256.938,256.564,273.281,255.715,283.617Z" transform="translate(-245.643 -218.911)" fill="#29abe5"/>
            <path id="Path_5587" data-name="Path 5587" d="M255.715,277.311a10.353,10.353,0,0,1-2.456,5.995l-2.187,2.47a1.116,1.116,0,0,1-1.853-.161l-2.641-4.142a6.363,6.363,0,0,1-.908-3.942c.282-3.161.807-9.252,1.237-15.129,4.918-6.741,6.974-16,7.8-23.547.528,3.717.924,7.674,1.1,11.775C255.807,250.632,256.564,266.976,255.715,277.311Z" transform="translate(-245.643 -212.606)" fill="#29abe5"/>
          </g>
        </g>
        <path id="Path_5588" data-name="Path 5588" d="M239.1,213s9.668,40.492,8.13,55.744c0,0-3.555-16.3-12.11-29.651,0,0,3.122-2.745,2.952-3.758a10.677,10.677,0,0,0-4.564-.224s.249-17.454,1.65-19.3A10.217,10.217,0,0,1,239.1,213Z" transform="translate(-219.666 -179.467)" fill="#233862"/>
        <path id="Path_5589" data-name="Path 5589" d="M249.321,214.043c-1.449.117,9.581,39.568,10.4,52.213,0,0-.969-22.566-.874-29.069,0,0-4.016-2.126-4.016-2.872s4.284-2.763,4.284-2.763-2.712-13.9-4.193-15.428S249.321,214.043,249.321,214.043Z" transform="translate(-214.71 -179.137)" fill="#233862"/>
        <path id="Path_5590" data-name="Path 5590" d="M264.722,276.782s-.669.905-.243,3.182.191,3.532.779,3.14,1.806-3.126,1.806-3.126Z" transform="translate(-209.921 -159.304)" fill="#ffb27d"/>
        <path id="Path_5591" data-name="Path 5591" d="M248.89,270.329c-11.255-1.681-18.781-12.2-22.824-20.163-.376-4.724-.961-10.192-1.515-14.958l2.634-7.512Z" transform="translate(-222.499 -174.821)" fill="#233862"/>
        <path id="Path_5592" data-name="Path 5592" d="M274.239,266.613a37.987,37.987,0,0,1-16.158.151q-.178-1.576-.365-3.186c-.009-.092-.022-.183-.032-.275q.349-1.37.7-2.74c4.027,1.443,13.028,4.6,15.8,5.574C274.2,266.3,274.222,266.457,274.239,266.613Z" transform="translate(-212.024 -164.431)" fill="#233862"/>
        <path id="Path_5593" data-name="Path 5593" d="M238.488,215.138s-9.891,1.249-14.405,7.551,5.18,40.619,25.3,51.609c9.677,5.287,37.6,6.477,37.6,6.477s1.536.154,2.144-2.936a12.312,12.312,0,0,0,0-2.915S257.343,263,254.547,260.71,238.488,215.138,238.488,215.138Z" transform="translate(-222.992 -178.791)" fill="#22407a"/>
      </g>
    </g>
  </g>
</svg>
